<?xml version="1.0" standalone="no"?><!DOCTYPE svg PUBLIC "-//W3C//DTD SVG 1.1//EN" "http://www.w3.org/Graphics/SVG/1.1/DTD/svg11.dtd"><svg t="1555392517855" class="icon" style="" viewBox="0 0 1024 1024" version="1.1" xmlns="http://www.w3.org/2000/svg" p-id="1165" xmlns:xlink="http://www.w3.org/1999/xlink" width="200" height="200"><defs><style type="text/css"></style></defs><path d="M511.200625 1.598751c-178.260734 0-322.148322 143.887588-322.148322 322.148322s322.148322 700.252927 322.148322 700.252927 322.148322-521.992194 322.148321-700.252927C832.549571 145.486339 688.661983 1.598751 511.200625 1.598751z m0 570.754098c-137.492584 0-249.405152-111.912568-249.405153-249.405152s111.912568-249.405152 249.405153-249.405152C647.893833 74.34192 759.806401 186.254489 759.806401 323.747073c0 137.492584-111.912568 248.605777-248.605776 248.605776z" fill="#E88600" p-id="1166"></path><path d="M465.636222 440.455894h91.128805V471.631538h36.771273V120.705699H427.266198v19.984387h149.483217v25.580015H427.266198V471.631538h38.370024v-31.175644z m59.953161-246.20765h49.561281v49.56128h-49.561281v-49.56128zM524.790008 279.781421h49.56128v49.56128h-49.56128V279.781421z m0 84.733801h49.56128v49.561281h-49.56128v-49.561281z m-77.539423-170.266978h49.561281v49.56128h-49.561281v-49.56128z m0 85.533177h49.561281v49.56128h-49.561281V279.781421z m0 84.733801h49.561281v49.561281h-49.561281v-49.561281zM557.564403 472.430913H465.636222v3.996878H372.908665V511.600312h275.784543v-35.172521H557.564403z" fill="#E88600" p-id="1167"></path></svg>